<mxfile host="65bd71144e">
    <diagram id="boWTI3Q-7MZRJf_ZjPBJ" name="Page-2">
        <mxGraphModel dx="2244" dy="568" grid="1" gridSize="10" guides="1" tooltips="1" connect="1" arrows="1" fold="1" page="1" pageScale="1" pageWidth="1169" pageHeight="1654" math="0" shadow="0">
            <root>
                <mxCell id="0"/>
                <mxCell id="1" parent="0"/>
                <mxCell id="7BjW-fBF4zK-Bwu6hOXs-1" value="hub-lab-net&lt;br&gt;10.12.1.0/24" style="verticalLabelPosition=middle;verticalAlign=top;shape=mxgraph.basic.rect;fillColor2=none;strokeWidth=1;size=20;indent=5;fillColor=none;strokeColor=#7EA6E0;dashed=1;dashPattern=1 1;fontColor=#888888;labelPosition=center;align=left;horizontal=1;labelBorderColor=none;html=1;" parent="1" vertex="1">
                    <mxGeometry x="-992.25" y="100" width="300" height="830" as="geometry"/>
                </mxCell>
                <mxCell id="7BjW-fBF4zK-Bwu6hOXs-2" value="" style="image;aspect=fixed;html=1;points=[];align=center;fontSize=12;image=img/lib/azure2/networking/Virtual_Networks.svg;" parent="1" vertex="1">
                    <mxGeometry x="-992.25" y="60" width="33.5" height="20" as="geometry"/>
                </mxCell>
                <mxCell id="7BjW-fBF4zK-Bwu6hOXs-3" value="default subnet&lt;br&gt;10.12.1.0/24" style="verticalLabelPosition=middle;verticalAlign=top;shape=mxgraph.basic.rect;fillColor2=none;strokeWidth=1;size=20;indent=5;fillColor=#E6E6E6;strokeColor=none;dashed=1;dashPattern=1 1;fontColor=#888888;labelPosition=center;align=left;horizontal=1;labelBorderColor=none;html=1;" parent="1" vertex="1">
                    <mxGeometry x="-972.25" y="160" width="270" height="130" as="geometry"/>
                </mxCell>
                <mxCell id="7BjW-fBF4zK-Bwu6hOXs-4" value="GatewaySubnet&lt;br&gt;10.12.4.0/24" style="verticalLabelPosition=middle;verticalAlign=top;shape=mxgraph.basic.rect;fillColor2=none;strokeWidth=1;size=20;indent=5;fillColor=#E6E6E6;strokeColor=none;dashed=1;dashPattern=1 1;fontColor=#888888;labelPosition=center;align=left;horizontal=1;labelBorderColor=none;html=1;" parent="1" vertex="1">
                    <mxGeometry x="-972.25" y="777.5" width="270" height="130" as="geometry"/>
                </mxCell>
                <mxCell id="7BjW-fBF4zK-Bwu6hOXs-5" value="lab-firewall-ip" style="image;aspect=fixed;html=1;points=[];align=center;fontSize=12;image=img/lib/azure2/general/Browser.svg;fontColor=#666666;" parent="1" vertex="1">
                    <mxGeometry x="-1090" y="412" width="42.5" height="34" as="geometry"/>
                </mxCell>
                <mxCell id="7BjW-fBF4zK-Bwu6hOXs-6" value="lab-bastion-ip" style="image;aspect=fixed;html=1;points=[];align=center;fontSize=12;image=img/lib/azure2/general/Browser.svg;fontColor=#666666;" parent="1" vertex="1">
                    <mxGeometry x="-1090" y="620.5" width="41.25" height="33" as="geometry"/>
                </mxCell>
                <mxCell id="7BjW-fBF4zK-Bwu6hOXs-7" value="spoke-01&lt;br&gt;10.13.1.4/24" style="verticalLabelPosition=middle;verticalAlign=top;shape=mxgraph.basic.rect;fillColor2=none;strokeWidth=1;size=20;indent=5;fillColor=none;strokeColor=#7EA6E0;dashed=1;dashPattern=1 1;fontColor=#888888;labelPosition=center;align=left;horizontal=1;labelBorderColor=none;html=1;" parent="1" vertex="1">
                    <mxGeometry x="-528.75" y="100" width="306.5" height="380" as="geometry"/>
                </mxCell>
                <mxCell id="7BjW-fBF4zK-Bwu6hOXs-8" value="default subnet&lt;br&gt;10.13.1.0/26" style="verticalLabelPosition=middle;verticalAlign=top;shape=mxgraph.basic.rect;fillColor2=none;strokeWidth=1;size=20;indent=5;fillColor=#E6E6E6;strokeColor=none;dashed=1;dashPattern=1 1;fontColor=#888888;labelPosition=center;align=left;horizontal=1;labelBorderColor=none;html=1;" parent="1" vertex="1">
                    <mxGeometry x="-511.75" y="160" width="270" height="130" as="geometry"/>
                </mxCell>
                <mxCell id="7BjW-fBF4zK-Bwu6hOXs-9" value="services subnet&lt;br&gt;10.13.1.64/26" style="verticalLabelPosition=middle;verticalAlign=top;shape=mxgraph.basic.rect;fillColor2=none;strokeWidth=1;size=20;indent=5;fillColor=#E6E6E6;strokeColor=none;dashed=1;dashPattern=1 1;fontColor=#888888;labelPosition=center;align=left;horizontal=1;labelBorderColor=none;html=1;" parent="1" vertex="1">
                    <mxGeometry x="-511.75" y="320" width="270" height="130" as="geometry"/>
                </mxCell>
                <mxCell id="7BjW-fBF4zK-Bwu6hOXs-10" value="all-to-firewall-we" style="image;aspect=fixed;html=1;points=[];align=left;fontSize=12;image=img/lib/azure2/networking/Route_Tables.svg;labelPosition=right;verticalLabelPosition=middle;verticalAlign=middle;fontColor=#666666;" parent="1" vertex="1">
                    <mxGeometry x="-431.79999999999995" y="260" width="20.65" height="20" as="geometry"/>
                </mxCell>
                <mxCell id="7BjW-fBF4zK-Bwu6hOXs-11" value="all-to-firewall-we" style="image;aspect=fixed;html=1;points=[];align=left;fontSize=12;image=img/lib/azure2/networking/Route_Tables.svg;labelPosition=right;verticalLabelPosition=middle;verticalAlign=middle;fontColor=#666666;" parent="1" vertex="1">
                    <mxGeometry x="-431.79999999999995" y="440" width="20.65" height="20" as="geometry"/>
                </mxCell>
                <mxCell id="7BjW-fBF4zK-Bwu6hOXs-12" value="aks-01" style="image;aspect=fixed;html=1;points=[];align=center;fontSize=12;image=img/lib/azure2/containers/Kubernetes_Services.svg;fontColor=#666666;" parent="1" vertex="1">
                    <mxGeometry x="-458.75" y="362" width="47.6" height="42" as="geometry"/>
                </mxCell>
                <mxCell id="7BjW-fBF4zK-Bwu6hOXs-13" value="system pool" style="image;aspect=fixed;html=1;points=[];align=center;fontSize=12;image=img/lib/azure2/compute/VM_Scale_Sets.svg;fontColor=#666666;" parent="1" vertex="1">
                    <mxGeometry x="-346.75" y="364" width="48" height="48" as="geometry"/>
                </mxCell>
                <mxCell id="7BjW-fBF4zK-Bwu6hOXs-14" value="" style="edgeStyle=none;curved=1;rounded=0;orthogonalLoop=1;jettySize=auto;html=1;fontSize=12;startSize=8;endSize=8;strokeColor=#3399FF;dashed=1;" parent="1" edge="1">
                    <mxGeometry relative="1" as="geometry">
                        <mxPoint x="-335.14999999999964" y="387.5799999999999" as="sourcePoint"/>
                        <mxPoint x="-411.1500000000001" y="387.5799999999999" as="targetPoint"/>
                    </mxGeometry>
                </mxCell>
                <mxCell id="7BjW-fBF4zK-Bwu6hOXs-15" value="spoke-02&lt;br&gt;10.13.2.0/24" style="verticalLabelPosition=middle;verticalAlign=top;shape=mxgraph.basic.rect;fillColor2=none;strokeWidth=1;size=20;indent=5;fillColor=none;strokeColor=#7EA6E0;dashed=1;dashPattern=1 1;fontColor=#888888;labelPosition=center;align=left;horizontal=1;labelBorderColor=none;html=1;" parent="1" vertex="1">
                    <mxGeometry x="-528.75" y="520" width="306.5" height="185" as="geometry"/>
                </mxCell>
                <mxCell id="7BjW-fBF4zK-Bwu6hOXs-16" value="default subnet&lt;br&gt;10.13.2.0/26" style="verticalLabelPosition=middle;verticalAlign=top;shape=mxgraph.basic.rect;fillColor2=none;strokeWidth=1;size=20;indent=5;fillColor=#E6E6E6;strokeColor=none;dashed=1;dashPattern=1 1;fontColor=#888888;labelPosition=center;align=left;horizontal=1;labelBorderColor=none;html=1;" parent="1" vertex="1">
                    <mxGeometry x="-511.75" y="565" width="133" height="130" as="geometry"/>
                </mxCell>
                <mxCell id="7BjW-fBF4zK-Bwu6hOXs-17" value="default subnet&lt;br&gt;10.13.2.64/26" style="verticalLabelPosition=middle;verticalAlign=top;shape=mxgraph.basic.rect;fillColor2=none;strokeWidth=1;size=20;indent=5;fillColor=#E6E6E6;strokeColor=none;dashed=1;dashPattern=1 1;fontColor=#888888;labelPosition=center;align=left;horizontal=1;labelBorderColor=none;html=1;" parent="1" vertex="1">
                    <mxGeometry x="-370.75" y="565" width="133" height="130" as="geometry"/>
                </mxCell>
                <mxCell id="7BjW-fBF4zK-Bwu6hOXs-18" value="all-to-firewall-we" style="image;aspect=fixed;html=1;points=[];align=left;fontSize=12;image=img/lib/azure2/networking/Route_Tables.svg;labelPosition=right;verticalLabelPosition=middle;verticalAlign=middle;fontColor=#666666;" parent="1" vertex="1">
                    <mxGeometry x="-498.75" y="665" width="20.65" height="20" as="geometry"/>
                </mxCell>
                <mxCell id="7BjW-fBF4zK-Bwu6hOXs-19" value="all-to-firewall-we" style="image;aspect=fixed;html=1;points=[];align=left;fontSize=12;image=img/lib/azure2/networking/Route_Tables.svg;labelPosition=right;verticalLabelPosition=middle;verticalAlign=middle;fontColor=#666666;" parent="1" vertex="1">
                    <mxGeometry x="-358.75" y="665" width="20.65" height="20" as="geometry"/>
                </mxCell>
                <mxCell id="7BjW-fBF4zK-Bwu6hOXs-20" value="spoke-03&lt;br&gt;10.13.3.0/24" style="verticalLabelPosition=middle;verticalAlign=top;shape=mxgraph.basic.rect;fillColor2=none;strokeWidth=1;size=20;indent=5;fillColor=none;strokeColor=#7EA6E0;dashed=1;dashPattern=1 1;fontColor=#888888;labelPosition=center;align=left;horizontal=1;labelBorderColor=none;html=1;" parent="1" vertex="1">
                    <mxGeometry x="-522.25" y="750" width="300" height="185" as="geometry"/>
                </mxCell>
                <mxCell id="7BjW-fBF4zK-Bwu6hOXs-21" value="default subnet&lt;br&gt;10.13.3.0/26" style="verticalLabelPosition=middle;verticalAlign=top;shape=mxgraph.basic.rect;fillColor2=none;strokeWidth=1;size=20;indent=5;fillColor=#E6E6E6;strokeColor=none;dashed=1;dashPattern=1 1;fontColor=#888888;labelPosition=center;align=left;horizontal=1;labelBorderColor=none;html=1;" parent="1" vertex="1">
                    <mxGeometry x="-505.25" y="795" width="133" height="130" as="geometry"/>
                </mxCell>
                <mxCell id="7BjW-fBF4zK-Bwu6hOXs-22" value="default subnet&lt;br&gt;10.13.3.64/26" style="verticalLabelPosition=middle;verticalAlign=top;shape=mxgraph.basic.rect;fillColor2=none;strokeWidth=1;size=20;indent=5;fillColor=#E6E6E6;strokeColor=none;dashed=1;dashPattern=1 1;fontColor=#888888;labelPosition=center;align=left;horizontal=1;labelBorderColor=none;html=1;" parent="1" vertex="1">
                    <mxGeometry x="-364.25" y="795" width="133" height="130" as="geometry"/>
                </mxCell>
                <mxCell id="7BjW-fBF4zK-Bwu6hOXs-23" value="all-to-firewall-ne" style="image;aspect=fixed;html=1;points=[];align=left;fontSize=12;image=img/lib/azure2/networking/Route_Tables.svg;labelPosition=right;verticalLabelPosition=middle;verticalAlign=middle;fontColor=#666666;" parent="1" vertex="1">
                    <mxGeometry x="-492.25" y="895" width="20.65" height="20" as="geometry"/>
                </mxCell>
                <mxCell id="7BjW-fBF4zK-Bwu6hOXs-24" value="all-to-firewall-ne" style="image;aspect=fixed;html=1;points=[];align=left;fontSize=12;image=img/lib/azure2/networking/Route_Tables.svg;labelPosition=right;verticalLabelPosition=middle;verticalAlign=middle;fontColor=#666666;" parent="1" vertex="1">
                    <mxGeometry x="-352.25" y="895" width="20.65" height="20" as="geometry"/>
                </mxCell>
                <mxCell id="7BjW-fBF4zK-Bwu6hOXs-25" value="" style="image;aspect=fixed;html=1;points=[];align=center;fontSize=12;image=img/lib/azure2/networking/Virtual_Networks.svg;" parent="1" vertex="1">
                    <mxGeometry x="-528.75" y="70" width="33.5" height="20" as="geometry"/>
                </mxCell>
                <mxCell id="7BjW-fBF4zK-Bwu6hOXs-26" value="" style="image;aspect=fixed;html=1;points=[];align=center;fontSize=12;image=img/lib/azure2/networking/Virtual_Networks.svg;" parent="1" vertex="1">
                    <mxGeometry x="-528.75" y="490" width="33.5" height="20" as="geometry"/>
                </mxCell>
                <mxCell id="7BjW-fBF4zK-Bwu6hOXs-27" value="" style="image;aspect=fixed;html=1;points=[];align=center;fontSize=12;image=img/lib/azure2/networking/Virtual_Networks.svg;" parent="1" vertex="1">
                    <mxGeometry x="-528.75" y="720" width="33.5" height="20" as="geometry"/>
                </mxCell>
                <mxCell id="7BjW-fBF4zK-Bwu6hOXs-28" value="peering" style="endArrow=classic;startArrow=classic;html=1;rounded=0;fontSize=12;startSize=8;endSize=8;curved=1;strokeColor=#3399FF;fontColor=#666666;" parent="1" edge="1">
                    <mxGeometry width="50" height="50" relative="1" as="geometry">
                        <mxPoint x="-682.25" y="629.6600000000001" as="sourcePoint"/>
                        <mxPoint x="-532.25" y="629.6600000000001" as="targetPoint"/>
                    </mxGeometry>
                </mxCell>
                <mxCell id="7BjW-fBF4zK-Bwu6hOXs-29" value="peering" style="endArrow=classic;startArrow=classic;html=1;rounded=0;fontSize=12;startSize=8;endSize=8;curved=1;strokeColor=#3399FF;fontColor=#666666;" parent="1" edge="1">
                    <mxGeometry width="50" height="50" relative="1" as="geometry">
                        <mxPoint x="-678.75" y="859.6599999999999" as="sourcePoint"/>
                        <mxPoint x="-528.75" y="859.6599999999999" as="targetPoint"/>
                    </mxGeometry>
                </mxCell>
                <mxCell id="7BjW-fBF4zK-Bwu6hOXs-30" value="peering" style="endArrow=classic;startArrow=classic;html=1;rounded=0;fontSize=12;startSize=8;endSize=8;curved=1;strokeColor=#3399FF;fontColor=#666666;" parent="1" edge="1">
                    <mxGeometry width="50" height="50" relative="1" as="geometry">
                        <mxPoint x="-678.75" y="309.9999999999998" as="sourcePoint"/>
                        <mxPoint x="-528.75" y="309.9999999999998" as="targetPoint"/>
                    </mxGeometry>
                </mxCell>
                <mxCell id="7BjW-fBF4zK-Bwu6hOXs-31" value="" style="group" parent="1" vertex="1" connectable="0">
                    <mxGeometry x="-972.25" y="366" width="270" height="130" as="geometry"/>
                </mxCell>
                <mxCell id="7BjW-fBF4zK-Bwu6hOXs-32" value="AzureFirewallSubnet&lt;br&gt;10.12.3.0/24" style="verticalLabelPosition=middle;verticalAlign=top;shape=mxgraph.basic.rect;fillColor2=none;strokeWidth=1;size=20;indent=5;fillColor=#E6E6E6;strokeColor=none;dashed=1;dashPattern=1 1;fontColor=#888888;labelPosition=center;align=left;horizontal=1;labelBorderColor=none;html=1;" parent="7BjW-fBF4zK-Bwu6hOXs-31" vertex="1">
                    <mxGeometry width="270" height="130" as="geometry"/>
                </mxCell>
                <mxCell id="7BjW-fBF4zK-Bwu6hOXs-33" value="lab-firewall&lt;br&gt;10.12.3.4" style="image;aspect=fixed;html=1;points=[];align=center;fontSize=12;image=img/lib/azure2/networking/Firewalls.svg;fontColor=#888888;" parent="7BjW-fBF4zK-Bwu6hOXs-31" vertex="1">
                    <mxGeometry x="46.34" y="45" width="47.33" height="40" as="geometry"/>
                </mxCell>
                <mxCell id="7BjW-fBF4zK-Bwu6hOXs-34" value="" style="edgeStyle=none;curved=1;rounded=0;orthogonalLoop=1;jettySize=auto;html=1;fontSize=12;startSize=8;endSize=8;strokeColor=#3399FF;dashed=1;" parent="7BjW-fBF4zK-Bwu6hOXs-31" source="7BjW-fBF4zK-Bwu6hOXs-35" target="7BjW-fBF4zK-Bwu6hOXs-33" edge="1">
                    <mxGeometry relative="1" as="geometry"/>
                </mxCell>
                <mxCell id="7BjW-fBF4zK-Bwu6hOXs-35" value="my-firewall-policy" style="image;aspect=fixed;html=1;points=[];align=center;fontSize=12;image=img/lib/azure2/networking/Web_Application_Firewall_Policies_WAF.svg;fontColor=#666666;" parent="7BjW-fBF4zK-Bwu6hOXs-31" vertex="1">
                    <mxGeometry x="170" y="45" width="39" height="39" as="geometry"/>
                </mxCell>
                <mxCell id="7BjW-fBF4zK-Bwu6hOXs-36" value="" style="group" parent="1" vertex="1" connectable="0">
                    <mxGeometry x="-972.25" y="572" width="270" height="130" as="geometry"/>
                </mxCell>
                <mxCell id="7BjW-fBF4zK-Bwu6hOXs-37" value="AzureBastionSubnet&lt;br&gt;10.12.2.0/24" style="verticalLabelPosition=middle;verticalAlign=top;shape=mxgraph.basic.rect;fillColor2=none;strokeWidth=1;size=20;indent=5;fillColor=#E6E6E6;strokeColor=none;dashed=1;dashPattern=1 1;fontColor=#888888;labelPosition=center;align=left;horizontal=1;labelBorderColor=none;html=1;" parent="7BjW-fBF4zK-Bwu6hOXs-36" vertex="1">
                    <mxGeometry width="270" height="130" as="geometry"/>
                </mxCell>
                <mxCell id="7BjW-fBF4zK-Bwu6hOXs-38" value="lab-bastion" style="shape=image;verticalLabelPosition=bottom;labelBackgroundColor=default;verticalAlign=top;aspect=fixed;imageAspect=0;image=https://www.rbaconsulting.com/wp-content/uploads/2019/10/azure-bastion-icon.png;fontColor=#666666;" parent="7BjW-fBF4zK-Bwu6hOXs-36" vertex="1">
                    <mxGeometry x="47.5" y="50" width="45" height="45" as="geometry"/>
                </mxCell>
                <mxCell id="7BjW-fBF4zK-Bwu6hOXs-39" value="" style="endArrow=classic;startArrow=classic;html=1;rounded=0;fontSize=12;startSize=8;endSize=8;curved=1;strokeColor=#3399FF;" parent="1" edge="1">
                    <mxGeometry width="50" height="50" relative="1" as="geometry">
                        <mxPoint x="-1042.25" y="430.40999999999985" as="sourcePoint"/>
                        <mxPoint x="-932.25" y="430.40999999999985" as="targetPoint"/>
                    </mxGeometry>
                </mxCell>
                <mxCell id="7BjW-fBF4zK-Bwu6hOXs-40" value="" style="endArrow=classic;startArrow=classic;html=1;rounded=0;fontSize=12;startSize=8;endSize=8;curved=1;strokeColor=#3399FF;" parent="1" edge="1">
                    <mxGeometry width="50" height="50" relative="1" as="geometry">
                        <mxPoint x="-1040.5" y="639.9999999999998" as="sourcePoint"/>
                        <mxPoint x="-930.5" y="639.9999999999998" as="targetPoint"/>
                    </mxGeometry>
                </mxCell>
                <mxCell id="7BjW-fBF4zK-Bwu6hOXs-41" value="gateway-route" style="image;aspect=fixed;html=1;points=[];align=left;fontSize=12;image=img/lib/azure2/networking/Route_Tables.svg;labelPosition=right;verticalLabelPosition=middle;verticalAlign=middle;fontColor=#666666;" parent="1" vertex="1">
                    <mxGeometry x="-892.25" y="875" width="20.65" height="20" as="geometry"/>
                </mxCell>
                <mxCell id="7BjW-fBF4zK-Bwu6hOXs-42" value="hub-playground-ws" style="image;aspect=fixed;html=1;points=[];align=center;fontSize=12;image=img/lib/azure2/analytics/Log_Analytics_Workspaces.svg;fontColor=#666666;" parent="1" vertex="1">
                    <mxGeometry x="-641.25" y="412" width="48" height="48" as="geometry"/>
                </mxCell>
                <mxCell id="7BjW-fBF4zK-Bwu6hOXs-43" value="" style="edgeStyle=segmentEdgeStyle;endArrow=classic;html=1;curved=0;rounded=0;endSize=8;startSize=8;fontSize=12;dashed=1;strokeColor=#3399FF;" parent="1" source="7BjW-fBF4zK-Bwu6hOXs-32" edge="1">
                    <mxGeometry width="50" height="50" relative="1" as="geometry">
                        <mxPoint x="-667.25" y="540" as="sourcePoint"/>
                        <mxPoint x="-617.25" y="489.9999999999998" as="targetPoint"/>
                        <Array as="points">
                            <mxPoint x="-906.25" y="550"/>
                            <mxPoint x="-617.25" y="550"/>
                        </Array>
                    </mxGeometry>
                </mxCell>
                <mxCell id="8L1GvkyQbsnHiA_5AEgP-3" style="edgeStyle=none;html=1;" edge="1" parent="1" source="N0JRzExT0ezi2QKMaI2c-2" target="4eZO1WtbJjgUmMKiN31g-1">
                    <mxGeometry relative="1" as="geometry"/>
                </mxCell>
                <mxCell id="N0JRzExT0ezi2QKMaI2c-2" value="Front Door&lt;br&gt;Premium" style="image;aspect=fixed;html=1;points=[];align=center;fontSize=12;image=img/lib/azure2/networking/Front_Doors.svg;" vertex="1" parent="1">
                    <mxGeometry x="-180" y="190" width="68" height="60" as="geometry"/>
                </mxCell>
                <mxCell id="8L1GvkyQbsnHiA_5AEgP-2" style="edgeStyle=none;html=1;" edge="1" parent="1" source="8L1GvkyQbsnHiA_5AEgP-1" target="N0JRzExT0ezi2QKMaI2c-2">
                    <mxGeometry relative="1" as="geometry"/>
                </mxCell>
                <mxCell id="8L1GvkyQbsnHiA_5AEgP-1" value="User" style="verticalLabelPosition=bottom;html=1;verticalAlign=top;align=center;strokeColor=none;fillColor=#00BEF2;shape=mxgraph.azure.user;" vertex="1" parent="1">
                    <mxGeometry x="-66.5" y="100" width="47.5" height="50" as="geometry"/>
                </mxCell>
                <mxCell id="0Wq8xCjCeLlN35aNdzkh-2" style="edgeStyle=none;html=1;" edge="1" parent="1" source="4eZO1WtbJjgUmMKiN31g-1" target="0Wq8xCjCeLlN35aNdzkh-1">
                    <mxGeometry relative="1" as="geometry"/>
                </mxCell>
                <mxCell id="4eZO1WtbJjgUmMKiN31g-1" value="Private Link Service" style="image;aspect=fixed;html=1;points=[];align=center;fontSize=12;image=img/lib/azure2/networking/Private_Link.svg;" vertex="1" parent="1">
                    <mxGeometry x="-338.1" y="200" width="43.64" height="40" as="geometry"/>
                </mxCell>
                <mxCell id="0Wq8xCjCeLlN35aNdzkh-3" style="edgeStyle=none;html=1;" edge="1" parent="1" source="0Wq8xCjCeLlN35aNdzkh-1" target="7BjW-fBF4zK-Bwu6hOXs-12">
                    <mxGeometry relative="1" as="geometry">
                        <Array as="points">
                            <mxPoint x="-473" y="300"/>
                            <mxPoint x="-435" y="300"/>
                        </Array>
                    </mxGeometry>
                </mxCell>
                <mxCell id="0Wq8xCjCeLlN35aNdzkh-1" value="Internal&lt;br&gt;Load Balancer" style="image;sketch=0;aspect=fixed;html=1;points=[];align=center;fontSize=12;image=img/lib/mscae/Load_Balancer_feature.svg;" vertex="1" parent="1">
                    <mxGeometry x="-490" y="203.25" width="33.5" height="33.5" as="geometry"/>
                </mxCell>
            </root>
        </mxGraphModel>
    </diagram>
</mxfile>